<?xml version="1.0" standalone="no"?>
<!DOCTYPE svg PUBLIC "-//W3C//DTD SVG 20010904//EN"
 "http://www.w3.org/TR/2001/REC-SVG-20010904/DTD/svg10.dtd">
<svg version="1.0" xmlns="http://www.w3.org/2000/svg"
 width="576.000000pt" height="576.000000pt" viewBox="0 0 576.000000 576.000000"
 preserveAspectRatio="xMidYMid meet">
<metadata>
Created by potrace 1.14, written by Peter Selinger 2001-2017
</metadata>
<g transform="translate(0.000000,576.000000) scale(0.100000,-0.100000)"
fill="#000000" stroke="none">
<path d="M2835 5432 c-36 -13 -85 -46 -85 -58 0 -7 -3 -14 -7 -16 -8 -3 -30
-39 -60 -98 -10 -19 -20 -37 -23 -40 -6 -5 -126 -250 -153 -310 -53 -121 -164
-406 -172 -444 -3 -11 -15 -54 -29 -95 -31 -98 -41 -135 -70 -256 -27 -111
-29 -116 -57 -265 -19 -101 -22 -125 -33 -235 -3 -27 -8 -70 -11 -95 -7 -56
-16 -258 -15 -324 l1 -49 -38 28 c-21 16 -54 40 -73 54 -19 14 -43 33 -53 42
-10 9 -33 25 -52 35 -19 10 -35 22 -35 26 0 5 -5 8 -11 8 -6 0 -24 11 -41 25
-16 14 -36 25 -43 25 -7 0 -15 4 -17 8 -3 7 -64 46 -148 95 -151 88 -386 203
-525 258 -33 13 -62 26 -65 29 -3 3 -9 6 -15 7 -15 3 -76 24 -110 39 -44 18
-171 60 -240 79 -33 9 -82 22 -109 29 -85 24 -161 0 -202 -62 -25 -38 -23
-130 5 -222 78 -253 103 -320 188 -520 150 -348 349 -682 566 -950 l68 -84
-53 -13 c-79 -18 -86 -20 -168 -42 -142 -37 -331 -104 -468 -167 -29 -13 -56
-24 -60 -24 -15 -1 -70 -56 -85 -85 -8 -16 -14 -51 -13 -76 2 -64 37 -112 106
-145 54 -26 258 -114 263 -113 1 0 15 -4 30 -10 16 -6 34 -11 41 -11 6 0 16
-4 22 -9 5 -6 20 -11 34 -13 14 -2 30 -7 36 -10 6 -4 21 -9 35 -12 13 -3 58
-15 99 -26 41 -12 85 -23 98 -26 12 -2 34 -7 50 -10 66 -13 181 -34 221 -39
23 -3 55 -7 70 -10 53 -9 230 -17 354 -17 70 1 127 0 127 -1 0 -2 -11 -26 -24
-54 -138 -285 -168 -410 -117 -481 31 -44 87 -71 139 -68 82 6 484 186 620
277 24 16 47 29 51 29 5 0 20 9 35 21 l26 20 1 -23 c1 -13 1 -26 0 -30 -1 -12
-2 -140 -1 -230 0 -48 -1 -91 -2 -95 -5 -19 14 -127 26 -151 60 -115 211 -163
325 -103 55 28 74 47 102 100 26 51 30 92 28 316 -1 114 2 215 7 215 3 0 58
-31 123 -70 64 -38 126 -72 137 -76 10 -4 35 -17 54 -29 19 -12 37 -22 40 -23
3 0 37 -15 75 -32 233 -106 333 -127 391 -84 101 75 93 157 -39 447 -20 42
-35 79 -34 81 1 2 -6 13 -16 24 -18 19 -16 19 130 20 196 1 356 13 483 37 14
3 41 7 60 10 35 6 137 25 155 30 6 1 15 4 20 5 289 75 614 198 682 258 54 47
65 139 25 204 -18 29 -43 47 -105 77 -167 81 -342 142 -569 200 l-149 38 28
34 c15 19 34 40 41 48 8 8 32 39 55 70 22 31 43 58 46 61 3 3 28 39 56 80 27
41 52 77 56 80 4 3 15 21 26 40 18 33 54 93 81 135 6 11 20 35 29 53 9 17 20
32 25 32 4 0 8 8 8 18 0 10 4 22 9 28 9 8 114 212 116 224 1 3 14 32 29 65 42
90 53 115 90 212 18 48 37 97 41 108 4 11 9 26 11 33 1 8 6 21 10 30 4 9 8 22
10 27 1 6 13 44 27 85 59 179 66 245 32 310 -30 58 -129 92 -195 68 -14 -6
-36 -12 -50 -14 -14 -3 -52 -13 -85 -23 -33 -11 -69 -21 -80 -24 -19 -5 -164
-56 -215 -75 -14 -5 -29 -11 -35 -12 -5 -1 -19 -7 -30 -13 -11 -6 -25 -12 -31
-13 -6 -1 -37 -14 -70 -29 -32 -15 -75 -34 -94 -42 -261 -114 -604 -320 -844
-510 -22 -18 -41 -31 -42 -30 -1 1 -5 79 -9 172 -4 94 -8 181 -10 195 -5 57
-17 157 -22 185 -3 17 -6 39 -8 50 -4 42 -23 150 -25 150 -1 0 -3 9 -5 20 -12
68 -20 104 -51 225 -19 74 -37 146 -40 159 -3 14 -8 29 -12 35 -3 6 -8 22 -10
36 -2 13 -8 30 -14 37 -6 7 -8 13 -5 13 7 0 -47 153 -110 310 -116 293 -287
619 -349 667 -35 26 -101 38 -139 25z"/>
</g>
</svg>
